PathFileType	4	(X/Y/Z)	E:\Qualisys_Data\Carbon_Farble_Plate\Data\Amateur_Runner\S14\T1\S14T1V11_c3d.trc
DataRate	CameraRate	NumFrames	NumMarkers	Units	OrigDataRate	OrigDataStartFrame	OrigNumFrames
200.000000	200.000000	4	39	mm	200.000000	218	349
Frame#	Time	LSHO			RSHO			LICST			RICST			LASIS			LHEEL			RASIS			LTROC			RTROC			SACR			LTH1			LSK4			LTH2			LTH3			RHM5			LSK2			LTH4			RTH1			LTOE			RTH2			RTH3			RTH4			LLEP			RLEP			LSK1			LSK3			RSK1			LHM5			RSK2			LFT1			RSK3			RSK4			LLME			RLME			RTOE			RHEEL			RFT1			RFT2			LFT2			
		X1	Y1	Z1	X2	Y2	Z2	X3	Y3	Z3	X4	Y4	Z4	X5	Y5	Z5	X6	Y6	Z6	X7	Y7	Z7	X8	Y8	Z8	X9	Y9	Z9	X10	Y10	Z10	X11	Y11	Z11	X12	Y12	Z12	X13	Y13	Z13	X14	Y14	Z14	X15	Y15	Z15	X16	Y16	Z16	X17	Y17	Z17	X18	Y18	Z18	X19	Y19	Z19	X20	Y20	Z20	X21	Y21	Z21	X22	Y22	Z22	X23	Y23	Z23	X24	Y24	Z24	X25	Y25	Z25	X26	Y26	Z26	X27	Y27	Z27	X28	Y28	Z28	X29	Y29	Z29	X30	Y30	Z30	X31	Y31	Z31	X32	Y32	Z32	X33	Y33	Z33	X34	Y34	Z34	X35	Y35	Z35	X36	Y36	Z36	X37	Y37	Z37	X38	Y38	Z38	X39	Y39	Z39	

219	1.09	766.4762573242188	1425.934692382812	-525.6661987304688	839.9974975585938	1410.051025390625	-228.8587036132812	731.546630859375	972.583740234375	-505.4493408203125	768.477783203125	975.9984741210938	-229.6847534179688	775.8723754882812	923.5145263671876	-480.619140625	550.7144165039062	281.6624755859375	-410.7540283203125	791.4022827148438	933.11962890625	-248.6076354980469	643.8616333007812	850.8187255859375	-518.8828735351562	642.2167358398438	886.9846801757812	-195.7155456542969	611.1627807617188	984.23583984375	-363.0491943359375	836.3616333007812	673.67138671875	-527.3441772460938	712.3958129882812	411.7497253417969	-487.7325439453125	771.218505859375	634.5442504882812	-507.5195617675781	894.2940063476562	594.8579711914062	-506.6609191894531	515.06591796875	56.97060394287109	-239.6333618164062	783.7317504882812	478.6807861328125	-503.7825622558594	825.9051513671875	554.6290893554688	-491.4974365234375	747.9978637695312	634.1353149414062	-204.5020141601562	732.634521484375	99.15308380126952	-440.7776489257812	672.087890625	647.6687622070312	-195.0979461669922	732.1446533203125	538.3480224609375	-238.1399230957031	650.8055419921875	549.3483276367188	-217.3788909912109	888.1966552734375	521.8173828125	-501.006591796875	655.3358154296875	475.2545166015625	-228.9502716064453	841.0498657226562	421.22412109375	-497.4680786132812	766.826171875	351.9693603515625	-482.8757629394531	618.7625732421875	354.4332275390625	-230.3451538085938	673.5234375	136.862060546875	-498.59423828125	545.8900756835938	398.0855102539062	-222.7424926757812	543.8705444335938	254.1058807373047	-384.2421569824219	557.3013305664062	271.2162780761719	-246.9168548583984	494.5720520019531	318.3502807617188	-237.5123901367188	613.5413818359375	265.8892517089844	-468.8583679199219	420.8995971679688	155.3073120117188	-263.6845703125	582.1653442382812	46.12248611450195	-306.86767578125	354.5293273925781	149.5997314453125	-316.3768615722656	357.5504150390625	119.073486328125	-346.6445922851562	348.6118469238281	127.8359680175781	-289.8958435058594	533.420166015625	262.4448852539062	-438.1665954589844
220	1.095	779.7029418945312	1429.93701171875	-525.9837646484375	856.2421264648438	1414.08349609375	-230.5213165283203	746.7029418945312	977.1149291992188	-505.963623046875	784.9202270507812	978.9125366210938	-230.2868957519531	791.2040405273438	928.169677734375	-481.4772338867188	577.5534057617188	272.0721435546875	-410.3932495117188	807.1744995117188	935.7799072265624	-249.5988006591797	659.9495239257812	855.3739624023438	-520.1845703125	657.6357421875	891.1067504882812	-195.9442596435547	627.0069580078125	987.6664428710938	-363.2738037109375	853.4937744140625	679.0250854492188	-527.03662109375	733.5364990234375	409.3528747558594	-487.3795471191406	788.8060302734375	639.098388671875	-508.0939025878906	911.780517578125	599.6130981445312	-505.4322509765625	516.4348754882812	57.67104721069336	-238.9299011230469	801.1669311523438	479.1762390136719	-503.8194580078125	843.2752075195312	559.5255126953125	-491.8260803222656	759.2574462890625	636.6166381835938	-205.5879058837891	767.0460205078125	97.63066864013672	-441.0283813476562	683.7508544921875	651.89599609375	-195.048828125	741.5162353515625	541.239501953125	-239.3109130859375	660.6744995117188	554.0164184570312	-217.1943359375	905.6533203125	526.4325561523438	-500.1798095703125	663.6875610351562	479.2422485351562	-229.1223602294922	861.7472534179688	423.7292785644531	-496.7551879882812	790.4568481445312	351.9935607910156	-482.9186401367188	625.0154418945312	358.5249938964844	-230.0577850341797	706.2466430664062	132.2524566650391	-498.6026611328125	552.6400146484375	403.4766540527344	-222.2476196289062	572.1558227539062	243.8592987060547	-383.7610168457031	563.3859252929688	276.2669067382812	-245.9094543457031	500.44873046875	323.6200866699219	-237.0239105224609	640.9390258789062	259.0001525878906	-468.876953125	426.5390625	160.58251953125	-263.0421142578125	583.6088256835938	45.97354507446289	-306.0927124023438	360.0213012695312	156.5171966552734	-315.7626342773438	363.0132141113281	126.1510620117188	-345.2440795898438	353.9457092285156	134.9935455322266	-288.8720703125	562.0027465820312	251.5726165771484	-437.4509887695312
221	1.1	793.0809936523438	1433.873657226562	-526.2628784179688	872.4990844726562	1418.14404296875	-232.0001678466797	761.83251953125	981.2569580078124	-506.6080322265625	801.4219360351562	981.768310546875	-231.2793121337891	806.78564453125	932.59423828125	-482.0698852539062	604.5054321289062	261.9062805175781	-410.2301940917969	823.1136474609375	938.3207397460938	-250.6479797363281	675.6852416992188	860.353515625	-520.9158935546875	673.22265625	894.59228515625	-196.4571075439453	643.2224731445312	991.42236328125	-363.5446166992188	870.4583129882812	683.6080322265625	-526.8049926757812	754.4486083984375	405.9495849609375	-486.9417724609375	805.7236938476562	643.5161743164062	-508.6878967285156	928.813720703125	604.5263061523438	-504.2582092285156	518.73095703125	58.59278106689453	-238.0063018798828	819.8222045898438	479.2086181640625	-503.0379333496094	860.5344848632812	564.1849365234375	-492.0338134765625	770.61669921875	639.416748046875	-206.4089965820312	801.3444213867188	95.88224792480467	-441.1794128417969	695.41650390625	655.57421875	-195.3522338867188	751.156494140625	544.5590209960938	-239.0975036621094	670.9515991210938	558.3372192382812	-217.25048828125	922.6617431640624	530.951171875	-499.4794006347656	672.1583251953125	483.4586181640625	-228.6633453369141	882.0999145507812	426.0088195800781	-496.3918151855469	813.6801147460938	351.1115112304688	-482.6800842285156	632.0540771484375	363.404541015625	-229.4973449707031	739.0811767578125	128.1829681396484	-498.6077880859375	560.0301513671875	408.6125793457031	-222.1185607910156	599.9336547851562	234.12841796875	-384.0047912597656	569.7727661132812	280.8415222167969	-244.5399169921875	507.3439025878906	328.8812561035156	-236.6055755615234	668.474365234375	251.6478271484375	-468.7109375	432.6061401367188	165.9405975341797	-261.7260437011719	585.2081909179688	45.63881301879883	-305.6197204589844	366.4595642089844	164.1125640869141	-314.5338439941406	368.4880676269531	134.0717926025391	-344.6203002929688	359.4245300292969	142.3070831298828	-288.1256408691406	589.92822265625	240.8089447021484	-437.45947265625
222	1.105	806.2529296875	1437.646362304688	-526.5636596679688	888.7335205078125	1422.23486328125	-233.6436462402344	777.628173828125	986.3176879882812	-506.35400390625	817.8031616210938	984.8082275390624	-231.7795257568359	822.2611083984375	937.1895751953124	-483.0129089355469	632.0557861328125	252.2463073730469	-409.9435424804688	839.4649658203125	941.191162109375	-251.5614624023438	691.7556762695312	864.4747314453125	-521.8894653320312	688.9307250976562	898.3632202148438	-196.6933441162109	659.1673583984375	994.9862670898438	-363.1930541992188	887.273193359375	687.9471435546875	-526.3430786132812	775.784912109375	402.9253234863281	-486.6115112304688	822.3092651367188	647.8486328125	-509.0247192382812	945.6299438476562	609.0922241210938	-503.6712951660156	520.8908081054688	59.40451049804688	-237.3041229248047	837.7297973632812	479.0180053710938	-502.5884094238281	876.97216796875	568.4683227539062	-492.3429565429688	782.294189453125	642.1676025390625	-207.2091064453125	835.6888427734375	94.64864349365234	-441.2259521484375	707.0784301757812	659.369384765625	-195.3413238525391	760.988037109375	547.6531982421875	-239.1242370605469	680.8319091796875	562.4696044921875	-217.1069488525391	939.251953125	534.92529296875	-498.6126708984375	680.8665161132812	487.8455505371094	-228.5578155517578	902.261474609375	428.2401733398438	-496.4796752929688	836.8451538085938	350.7195434570312	-482.5968017578125	639.1690673828125	368.3453063964844	-228.4294128417969	771.7212524414062	123.9358520507812	-498.8527221679688	567.2066040039062	413.5769958496094	-221.7233276367188	628.9759521484375	223.7565765380859	-383.6087036132812	576.6133422851562	285.9186401367188	-243.7177734375	514.1296997070312	334.5894165039062	-235.9920349121094	695.9880981445312	244.5436553955078	-468.4414367675781	439.3094787597656	170.9738464355469	-260.4454956054688	586.8340454101562	45.36051559448242	-304.8633728027344	373.1796569824219	171.4929962158203	-313.7685852050781	374.2105712890625	141.7176361083984	-344.1862182617188	365.5426330566406	149.3728179931641	-287.2652587890625	617.8759155273438	230.53076171875	-437.1463317871094
